<?xml version="1.0" encoding="UTF-8" standalone="no"?>
<svg
   xmlns:dc="http://purl.org/dc/elements/1.1/"
   xmlns:cc="http://creativecommons.org/ns#"
   xmlns:rdf="http://www.w3.org/1999/02/22-rdf-syntax-ns#"
   xmlns:svg="http://www.w3.org/2000/svg"
   xmlns="http://www.w3.org/2000/svg"
   viewBox="0 0 1445.3467 287.06668"
   height="287.06668"
   width="1445.3467"
   xml:space="preserve"
   id="svg2"
   version="1.1"><metadata
     id="metadata8"><rdf:RDF><cc:Work
         rdf:about=""><dc:format>image/svg+xml</dc:format><dc:type
           rdf:resource="http://purl.org/dc/dcmitype/StillImage" /></cc:Work></rdf:RDF></metadata><defs
     id="defs6"><clipPath
       id="clipPath26"
       clipPathUnits="userSpaceOnUse"><path
         id="path24"
         d="M 0,215.3 H 1084.014 V 0 H 0 Z" /></clipPath><clipPath
       id="clipPath90"
       clipPathUnits="userSpaceOnUse"><path
         id="path88"
         d="M 0,215.3 H 1084.014 V 0 H 0 Z" /></clipPath></defs><g
     transform="matrix(1.3333333,0,0,-1.3333333,0,287.06667)"
     id="g10"><g
       transform="translate(111.1191,170.261)"
       id="g12"><path
         id="path14"
         style="fill:#258bff;fill-opacity:1;fill-rule:nonzero;stroke:none"
         d="M 0,0 H -73.3 V -135.6 H 35.4 l -71,85.7 z" /></g><g
       transform="translate(173.8188,35.6614)"
       id="g16"><path
         id="path18"
         style="fill:#258bff;fill-opacity:1;fill-rule:nonzero;stroke:none"
         d="m 0,0 -78.1,94 35.6,50 H 0 Z" /></g><g
       id="g20"><g
         clip-path="url(#clipPath26)"
         id="g22"><g
           transform="translate(255.873,137.8343)"
           id="g28"><path
             id="path30"
             style="fill:#258bff;fill-opacity:1;fill-rule:nonzero;stroke:none"
             d="M 0,0 C 0,6.723 -4.979,9.71 -14.192,9.71 H -33.28 V -9.627 h 19.088 C -4.979,-9.627 0,-6.723 0,0 M -33.28,35.022 V 16.433 h 17.013 c 8.465,0 13.279,3.153 13.279,9.295 0,6.141 -4.814,9.294 -13.279,9.294 z M 8.382,-0.664 C 8.382,-10.623 0.83,-16.35 -13.86,-16.35 H -41.579 V 41.745 H -15.52 C -2.158,41.745 5.312,36.102 5.312,26.724 5.312,20.416 2.074,16.018 -2.49,13.776 4.066,11.951 8.382,7.055 8.382,-0.664" /></g><g
           transform="translate(315.7148,159.3294)"
           id="g32"><path
             id="path34"
             style="fill:#258bff;fill-opacity:1;fill-rule:nonzero;stroke:none"
             d="m 0,0 c 0,8.299 -5.561,13.029 -16.184,13.029 h -14.108 v -26.142 h 14.108 C -5.561,-13.113 0,-8.3 0,0 m 0.249,-37.845 -12.531,17.844 c -1.162,-0.083 -2.407,-0.166 -3.653,-0.166 h -14.357 v -17.678 h -8.299 V 20.25 h 22.656 C -0.83,20.25 8.3,12.614 8.3,0 8.3,-8.963 3.652,-15.437 -4.481,-18.342 L 9.296,-37.845 Z" /></g><g
           transform="translate(336.9658,146.5482)"
           id="g36"><path
             id="path38"
             style="fill:#258bff;fill-opacity:1;fill-rule:nonzero;stroke:none"
             d="M 0,0 V 33.031 H 8.3 V 0.332 c 0,-12.863 5.892,-18.673 16.349,-18.673 10.457,0 16.432,5.81 16.432,18.673 v 32.699 h 8.051 V 0 c 0,-16.848 -9.212,-25.728 -24.566,-25.728 C 9.295,-25.728 0,-16.848 0,0" /></g><g
           transform="translate(446.5205,128.7054)"
           id="g40"><path
             id="path42"
             style="fill:#258bff;fill-opacity:1;fill-rule:nonzero;stroke:none"
             d="m 0,0 v -7.221 h -48.55 v 5.644 l 36.517,45.23 H -47.97 v 7.221 H -1.078 V 45.23 L -37.43,0 Z" /></g><g
           transform="translate(481.6318,128.7054)"
           id="g44"><path
             id="path46"
             style="fill:#258bff;fill-opacity:1;fill-rule:nonzero;stroke:none"
             d="M 0,0 C 14.357,0 23.569,8.797 23.569,21.827 23.569,34.856 14.357,43.653 0,43.653 H -15.686 V 0 Z M -23.985,50.874 H 0.497 c 18.674,0 31.372,-11.785 31.372,-29.047 0,-17.263 -12.698,-29.048 -31.372,-29.048 h -24.482 z" /></g><g
           transform="translate(559.4844,142.6478)"
           id="g48"><path
             id="path50"
             style="fill:#258bff;fill-opacity:1;fill-rule:nonzero;stroke:none"
             d="M 0,0 -12.532,28.467 -25.064,0 Z m 2.904,-6.64 h -30.873 l -6.39,-14.523 h -8.548 l 26.308,58.095 h 8.216 L 18.009,-21.163 H 9.295 Z" /></g><g
           transform="translate(627.3779,147.2952)"
           id="g52"><path
             id="path54"
             style="fill:#258bff;fill-opacity:1;fill-rule:nonzero;stroke:none"
             d="m 0,0 -10.622,-10.789 v -15.022 h -8.3 v 58.095 h 8.3 v -32.45 l 31.536,32.45 h 9.462 L 5.561,6.142 31.952,-25.811 h -9.71 z" /></g><g
           transform="translate(714.7744,150.5325)"
           id="g56"><path
             id="path58"
             style="fill:#258bff;fill-opacity:1;fill-rule:nonzero;stroke:none"
             d="m 0,0 c 0,12.863 -9.627,22.324 -22.491,22.324 -13.03,0 -22.656,-9.461 -22.656,-22.324 0,-12.864 9.626,-22.325 22.656,-22.325 C -9.627,-22.325 0,-12.864 0,0 m -53.447,0 c 0,17.013 13.113,29.711 30.956,29.711 C -4.813,29.711 8.3,17.096 8.3,0 c 0,-17.097 -13.113,-29.712 -30.791,-29.712 -17.843,0 -30.956,12.698 -30.956,29.712" /></g><g
           transform="translate(785.7393,179.5794)"
           id="g60"><path
             id="path62"
             style="fill:#258bff;fill-opacity:1;fill-rule:nonzero;stroke:none"
             d="m 0,0 v -58.095 h -6.806 l -34.856,43.323 v -43.323 h -8.3 V 0 h 6.806 L -8.299,-43.322 V 0 Z" /></g><g
           transform="translate(851.8896,150.5325)"
           id="g64"><path
             id="path66"
             style="fill:#258bff;fill-opacity:1;fill-rule:nonzero;stroke:none"
             d="m 0,0 c 0,12.863 -9.627,22.324 -22.491,22.324 -13.03,0 -22.656,-9.461 -22.656,-22.324 0,-12.864 9.626,-22.325 22.656,-22.325 C -9.627,-22.325 0,-12.864 0,0 m -53.447,0 c 0,17.013 13.113,29.711 30.956,29.711 C -4.813,29.711 8.3,17.096 8.3,0 c 0,-17.097 -13.113,-29.712 -30.791,-29.712 -17.843,0 -30.956,12.698 -30.956,29.712" /></g><g
           transform="translate(911.4844,159.3294)"
           id="g68"><path
             id="path70"
             style="fill:#258bff;fill-opacity:1;fill-rule:nonzero;stroke:none"
             d="M 0,0 C 0,8.299 -5.561,13.029 -16.184,13.029 H -30.292 V -13.03 h 14.108 C -5.561,-13.03 0,-8.3 0,0 m 8.3,0 c 0,-12.615 -9.13,-20.25 -24.235,-20.25 h -14.357 v -17.595 h -8.3 V 20.25 h 22.657 C -0.83,20.25 8.3,12.614 8.3,0" /></g></g></g><g
       transform="translate(954.6162,147.2952)"
       id="g72"><path
         id="path74"
         style="fill:#258bff;fill-opacity:1;fill-rule:nonzero;stroke:none"
         d="m 0,0 -10.623,-10.789 v -15.022 h -8.3 v 58.095 h 8.3 v -32.45 l 31.537,32.45 h 9.461 L 5.561,6.142 31.952,-25.811 h -9.711 z" /></g><g
       transform="translate(1027.1563,142.6478)"
       id="g76"><path
         id="path78"
         style="fill:#258bff;fill-opacity:1;fill-rule:nonzero;stroke:none"
         d="M 0,0 -12.532,28.467 -25.064,0 Z m 2.904,-6.64 h -30.873 l -6.39,-14.523 h -8.548 l 26.308,58.095 h 8.216 L 18.009,-21.163 H 9.295 Z" /></g><g
       transform="translate(253.7324,54.5784)"
       id="g80"><path
         id="path82"
         style="fill:#258bff;fill-opacity:1;fill-rule:nonzero;stroke:none"
         d="M 0,0 -15.271,33.529 -30.458,0 Z m 1.577,-3.568 h -33.695 l -7.386,-16.35 h -4.565 l 26.724,58.095 h 4.232 L 13.611,-19.918 H 9.046 Z" /></g><g
       id="g84"><g
         clip-path="url(#clipPath90)"
         id="g86"><g
           transform="translate(300.5444,38.4778)"
           id="g92"><path
             id="path94"
             style="fill:#258bff;fill-opacity:1;fill-rule:nonzero;stroke:none"
             d="M 0,0 C 16.432,0 26.973,10.457 26.973,25.23 26.973,40.003 16.432,50.46 0,50.46 H -18.424 V 0 Z M -22.657,54.277 H 0.332 C 18.756,54.277 31.205,42.16 31.205,25.23 31.205,8.3 18.756,-3.817 0.332,-3.817 h -22.989 z" /></g><g
           transform="translate(422.3828,92.7552)"
           id="g96"><path
             id="path98"
             style="fill:#258bff;fill-opacity:1;fill-rule:nonzero;stroke:none"
             d="m 0,0 -19.669,-58.095 h -4.482 L -42.16,-5.976 -60.252,-58.095 h -4.482 L -84.486,0 h 4.481 L -62.328,-52.285 -44.152,0 h 4.067 L -21.993,-52.368 -4.15,0 Z" /></g><g
           transform="translate(484.6347,63.7083)"
           id="g100"><path
             id="path102"
             style="fill:#258bff;fill-opacity:1;fill-rule:nonzero;stroke:none"
             d="M 0,0 C 0,14.689 -11.121,25.562 -25.894,25.562 -40.75,25.562 -51.87,14.689 -51.87,0 c 0,-14.69 11.12,-25.562 25.976,-25.562 C -11.121,-25.562 0,-14.69 0,0 m -56.103,0 c 0,16.847 12.864,29.462 30.209,29.462 17.263,0 30.21,-12.532 30.21,-29.462 0,-16.931 -12.947,-29.463 -30.21,-29.463 -17.345,0 -30.209,12.615 -30.209,29.463" /></g><g
           transform="translate(520.9087,63.2933)"
           id="g104"><path
             id="path106"
             style="fill:#258bff;fill-opacity:1;fill-rule:nonzero;stroke:none"
             d="m 0,0 -13.03,-13.362 v -15.271 h -4.233 v 58.095 h 4.233 V -7.885 l 36.268,37.347 h 5.145 L 2.822,3.07 30.126,-28.633 h -5.145 z" /></g><g
           transform="translate(594.1963,54.5784)"
           id="g108"><path
             id="path110"
             style="fill:#258bff;fill-opacity:1;fill-rule:nonzero;stroke:none"
             d="M 0,0 -15.271,33.529 -30.458,0 Z m 1.577,-3.568 h -33.695 l -7.386,-16.35 h -4.564 l 26.723,58.095 h 4.233 L 13.611,-19.918 H 9.047 Z" /></g><g
           transform="translate(611.9609,63.7083)"
           id="g112"><path
             id="path114"
             style="fill:#258bff;fill-opacity:1;fill-rule:nonzero;stroke:none"
             d="m 0,0 c 0,16.93 12.864,29.462 30.127,29.462 8.216,0 15.602,-2.656 20.665,-8.051 L 48.137,18.673 C 43.157,23.569 37.099,25.562 30.293,25.562 15.437,25.562 4.233,14.606 4.233,0 c 0,-14.607 11.204,-25.562 26.06,-25.562 6.806,0 12.864,2.075 17.844,6.971 l 2.655,-2.738 C 45.729,-26.724 38.343,-29.463 30.127,-29.463 12.864,-29.463 0,-16.931 0,0" /></g><path
           id="path116"
           style="fill:#258bff;fill-opacity:1;fill-rule:nonzero;stroke:none"
           d="m 676.949,92.755 h 4.232 V 34.66 h -4.232 z" /></g></g></g></svg>